# xmcd
#
# Track frame offsets:
# 150
# 10451
# 25251
# 40351
# 62526
# 76873
# 91527
# 108488
# 131170
# 150699
# 162844
# 178083
# 196017
#
# Disc length: 2829 seconds
#
#
# Revision: 0
# Processed by: cddbd v1.5.1PL2 Copyright (c) Steve Scherf et al.
# Submitted via: FreeRIP 2.945 
#
DISCID=9a0b0b0d
DTITLE=Nicole Watts Jenkins - Walk On
DYEAR=2003
DGENRE=Gospel
TTITLE0=Walk On
TTITLE1=This Is Your Day
TTITLE2=The Lord Is Worthy
TTITLE3=Jesus Is Here
TTITLE4=I Sing
TTITLE5=Stories Never Grow Old
TTITLE6=Peace In The Storm
TTITLE7=Waymaker
TTITLE8=Come
TTITLE9=Great Things
TTITLE10=There For Me
TTITLE11=Thank God I'm Free
TTITLE12=Since He Gave Me A Song
EXTD=
EXTT0=
EXTT1=
EXTT2=
EXTT3=
EXTT4=
EXTT5=
EXTT6=
EXTT7=
EXTT8=
EXTT9=
EXTT10=
EXTT11=
EXTT12=
PLAYORDER=
